<svg width="17" height="16" viewBox="0 0 17 16" fill="none" xmlns="http://www.w3.org/2000/svg">
<path d="M16.017 6.26719C15.9643 6.10589 15.8261 5.99067 15.6582 5.96434L10.6545 5.25328L8.40278 0.726875C8.32707 0.575446 8.17235 0.47998 8.00446 0.47998C7.83657 0.47998 7.68185 0.575446 7.60613 0.730167L5.38408 5.26974L0.380347 6.01372C0.212459 6.04005 0.0741979 6.15527 0.0215271 6.31657C-0.0311438 6.47788 0.0149432 6.65564 0.136745 6.77086L3.76774 10.2899L2.9283 15.2739C2.89867 15.4418 2.9678 15.6097 3.10607 15.7085C3.18178 15.7644 3.27395 15.794 3.36613 15.794C3.43855 15.794 3.50768 15.7776 3.57352 15.7414L8.04067 13.3745L12.521 15.715C12.5868 15.748 12.656 15.7644 12.7251 15.7644C12.9687 15.7644 13.1695 15.5636 13.1695 15.32C13.1695 15.2838 13.1662 15.2509 13.1563 15.218L12.2906 10.2636L15.8985 6.72477C16.0269 6.60626 16.0697 6.4285 16.017 6.26719Z" fill="#FF7628"/>
</svg>
